<svg width="14" height="16" viewBox="0 0 14 16" fill="none" xmlns="http://www.w3.org/2000/svg">
<path d="M12.4265 2.07825H9.93054C9.78078 0.901408 8.8323 0 7.5843 0H6.81054C5.56254 0 4.5891 0.901408 4.4643 2.07825H1.89342C1.3443 2.07825 0.919983 2.50391 0.919983 3.05477L1.54398 13.4961C1.61886 14.8983 2.79198 16 4.18974 16H10.0803C11.4781 16 12.6512 14.9484 12.776 13.4961L13.4 3.05477C13.4 2.50391 12.9757 2.07825 12.4265 2.07825ZM6.81054 1.37715H7.5843C8.00862 1.37715 8.35806 1.65258 8.48286 2.07825H5.8371C5.98686 1.65258 6.3363 1.37715 6.81054 1.37715ZM11.3782 13.421C11.3033 14.1221 10.7542 14.5978 10.0553 14.5978H4.18974C3.49086 14.5978 2.94174 14.1221 2.94174 13.421L2.39262 3.48044H12.0272L11.3782 13.421Z" fill="#000000"/>
</svg>
